<svg xmlns="http://www.w3.org/2000/svg" xmlns:xlink="http://www.w3.org/1999/xlink" xml:lang="en" height="242.3pt" width="334.6095pt" viewBox="-32.606 -237.7 334.6095 242.3" xmlns:c2pa="http://c2pa.org/manifest"><metadata><c2pa:manifest>AAAWgmp1bWIAAAAeanVtZGMycGEAEQAQgAAAqgA4m3EDYzJwYQAAABZcanVtYgAAAEdqdW1kYzJtYQARABCAAACqADibcQN1cm46YzJwYToyYmEyMzllOS04YmRlLTQyNDctYTY2OS03YWM5N2VjOWU0ZWYAAAADl2p1bWIAAAApanVtZGMyYXMAEQAQgAAAqgA4m3EDYzJwYS5hc3NlcnRpb25zAAAAALxqdW1iAAAARGp1bWRjYm9yABEAEIAAAKoAOJtxE2MycGEuaW5ncmVkaWVudC52MwAAAAAYYzJzaOPm9vOydM1oqHqqZQVHstcAAABwY2JvcqNpZGM6Zm9ybWF0bWltYWdlL3N2Zyt4bWxqaW5zdGFuY2VJRHgseG1wOmlpZDoxYzJmOTUxMi1iNjY3LTRhZTUtYmVmMy00NjZjODg1YTM1ZWFscmVsYXRpb25zaGlwaHBhcmVudE9mAAAB4mp1bWIAAABBanVtZGNib3IAEQAQgAAAqgA4m3ETYzJwYS5hY3Rpb25zLnYyAAAAABhjMnNovzMgvjgIegZg78vNJ/n3aQAAAZljYm9yomdhY3Rpb25zgqJmYWN0aW9ua2MycGEub3BlbmVkanBhcmFtZXRlcnOha2luZ3JlZGllbnRzgaJjdXJseC1zZWxmI2p1bWJmPWMycGEuYXNzZXJ0aW9ucy9jMnBhLmluZ3JlZGllbnQudjNkaGFzaFggSsg85/6nmfG2/5wokRK5nl2LS7tRp4hFhdiXVo+NReakZmFjdGlvbngdY29tLmFudGhyb3BpYy5jbGF1ZGUucHJvdmlkZWRqcGFyYW1ldGVyc6F4H2NvbS5hbnRocm9waWMub3JpZ2luLWNvbmZpZGVuY2VndW5rbm93bmtkZXNjcmlwdGlvbnhmQ2xhdWRlIHByb3ZpZGVkIHRoaXMgZmlsZSBhdCB0aGUgcmVxdWVzdCBvZiBhIHVzZXIgYW5kIG1heSBoYXZlIGNyZWF0ZWQgb3IgbW9kaWZpZWQgdGhlIGZpbGUgY29udGVudHMubXNvZnR3YXJlQWdlbnShZG5hbWVmQ2xhdWRlcmFsbEFjdGlvbnNJbmNsdWRlZPUAAADIanVtYgAAAEBqdW1kY2JvcgARABCAAACqADibcRNjMnBhLmhhc2guZGF0YQAAAAAYYzJzaNMfmueAigCLjXk/iVEyVW0AAACAY2JvcqVjYWxnZnNoYTI1NmNwYWRNAAAAAAAAAAAAAAAAAGRoYXNoWCBrfvvBBwHZUMdePHSm3UQ1f3YFwEaWJ8nAbs3+eZSdzWRuYW1lbmp1bWJmIG1hbmlmZXN0amV4Y2x1c2lvbnOBomVzdGFydBjsZmxlbmd0aBkeBAAAAj5qdW1iAAAAJ2p1bWRjMmNsABEAEIAAAKoAOJtxA2MycGEuY2xhaW0udjIAAAACD2Nib3KlY2FsZ2ZzaGEyNTZpc2lnbmF0dXJleE1zZWxmI2p1bWJmPS9jMnBhL3VybjpjMnBhOjJiYTIzOWU5LThiZGUtNDI0Ny1hNjY5LTdhYzk3ZWM5ZTRlZi9jMnBhLnNpZ25hdHVyZWppbnN0YW5jZUlEeCx4bXA6aWlkOmNjZTA0NDY4LTAxZmUtNDUyYS1hYjBmLWI4MzEwZDMyODBmMnJjcmVhdGVkX2Fzc2VydGlvbnODomN1cmx4LXNlbGYjanVtYmY9YzJwYS5hc3NlcnRpb25zL2MycGEuaW5ncmVkaWVudC52M2RoYXNoWCBKyDzn/qeZ8bb/nCiRErmeXYtLu1GniEWF2JdWj41F5qJjdXJseCpzZWxmI2p1bWJmPWMycGEuYXNzZXJ0aW9ucy9jMnBhLmFjdGlvbnMudjJkaGFzaFgg12dVG9SpEe0FoMhFeGDrp3FxHGcPmSU4HtkvWGcQTkGiY3VybHgpc2VsZiNqdW1iZj1jMnBhLmFzc2VydGlvbnMvYzJwYS5oYXNoLmRhdGFkaGFzaFgg35e9bxrIzAwyMet2aQLXfdSLI6JlYMUG9VrJfElPo2p0Y2xhaW1fZ2VuZXJhdG9yX2luZm+jZG5hbWVvQW50aHJvcGljIEZpbGVzZ3ZlcnNpb25lMS4wLjBrc3BlY1ZlcnNpb25lMi40LjAAABA4anVtYgAAAChqdW1kYzJjcwARABCAAACqADibcQNjMnBhLnNpZ25hdHVyZQAAABAIY2JvctKEWQISogEmGCFZAgowggIGMIIBjaADAgECAhRA5aAK7sI50L64g/oGQgU9Z1UTADAKBggqhkjOPQQDAzBJMRcwFQYDVQQKEw5BbnRocm9waWMsIFBCQzEuMCwGA1UEAxMlQW50aHJvcGljIENvbnRlbnQgQ3JlZGVudGlhbHMgUm9vdCBDQTAeFw0yNjA4MDcxODQzNTZaFw0yODA4MDYxOTQzNTZaMEQxFzAVBgNVBAoTDkFudGhyb3BpYywgUEJDMSkwJwYDVQQDEyBBbnRocm9waWMgQ2xhdWRlIENvbnRlbnQgU2lnbmluZzBZMBMGByqGSM49AgEGCCqGSM49AwEHA0IABJh6CmvLUBgFFNU0vUKlOVtE6djd17L5SuwX0LemFisBM3dkd/3cyjxFA3Qo5S46fX0/ihY0VZ7mfb9KF703t5OjWDBWMA4GA1UdDwEB/wQEAwIHgDAVBgNVHSUEDjAMBgorBgEEAYPoXgIBMAwGA1UdEwEB/wQCMAAwHwYDVR0jBBgwFoAUzlHiBIFOZFsj+OPEz5o+nMHXXMIwCgYIKoZIzj0EAwMDZwAwZAIwMXMdFJ4BetLLVY7ORuE9noqbbAZOZn/aArXyTwFAZfKrPzxF2vPoJNf1+UCdg1XGAjBwX1zd9WGqYkqmL5SFqw1QySjr1zJfpJM9+1rdDwSPLMOPOjKuiXjoU/pUUeG9RwmhY3BhZFkNngAAAAAAAAAAAAAAAAAAAAAAAAAAAAAAAAAAAAAAAAAAAAAAAAAAAAAAAAAAAAAAAAAAAAAAAAAAAAAAAAAAAAAAAAAAAAAAAAAAAAAAAAAAAAAAAAAAAAAAAAAAAAAAAAAAAAAAAAAAAAAAAAAAAAAAAAAAAAAAAAAAAAAAAAAAAAAAAAAAAAAAAAAAAAAAAAAAAAAAAAAAAAAAAAAAAAAAAAAAAAAAAAAAAAAAAAAAAAAAAAAAAAAAAAAAAAAAAAAAAAAAAAAAAAAAAAAAAAAAAAAAAAAAAAAAAAAAAAAAAAAAAAAAAAAAAAAAAAAAAAAAAAAAAAAAAAAAAAAAAAAAAAAAAAAAAAAAAAAAAAAAAAAAAAAAAAAAAAAAAAAAAAAAAAAAAAAAAAAAAAAAAAAAAAAAAAAAAAAAAAAAAAAAAAAAAAAAAAAAAAAAAAAAAAAAAAAAAAAAAAAAAAAAAAAAAAAAAAAAAAAAAAAAAAAAAAAAAAAAAAAAAAAAAAAAAAAAAAAAAAAAAAAAAAAAAAAAAAAAAAAAAAAAAAAAAAAAAAAAAAAAAAAAAAAAAAAAAAAAAAAAAAAAAAAAAAAAAAAAAAAAAAAAAAAAAAAAAAAAAAAAAAAAAAAAAAAAAAAAAAAAAAAAAAAAAAAAAAAAAAAAAAAAAAAAAAAAAAAAAAAAAAAAAAAAAAAAAAAAAAAAAAAAAAAAAAAAAAAAAAAAAAAAAAAAAAAAAAAAAAAAAAAAAAAAAAAAAAAAAAAAAAAAAAAAAAAAAAAAAAAAAAAAAAAAAAAAAAAAAAAAAAAAAAAAAAAAAAAAAAAAAAAAAAAAAAAAAAAAAAAAAAAAAAAAAAAAAAAAAAAAAAAAAAAAAAAAAAAAAAAAAAAAAAAAAAAAAAAAAAAAAAAAAAAAAAAAAAAAAAAAAAAAAAAAAAAAAAAAAAAAAAAAAAAAAAAAAAAAAAAAAAAAAAAAAAAAAAAAAAAAAAAAAAAAAAAAAAAAAAAAAAAAAAAAAAAAAAAAAAAAAAAAAAAAAAAAAAAAAAAAAAAAAAAAAAAAAAAAAAAAAAAAAAAAAAAAAAAAAAAAAAAAAAAAAAAAAAAAAAAAAAAAAAAAAAAAAAAAAAAAAAAAAAAAAAAAAAAAAAAAAAAAAAAAAAAAAAAAAAAAAAAAAAAAAAAAAAAAAAAAAAAAAAAAAAAAAAAAAAAAAAAAAAAAAAAAAAAAAAAAAAAAAAAAAAAAAAAAAAAAAAAAAAAAAAAAAAAAAAAAAAAAAAAAAAAAAAAAAAAAAAAAAAAAAAAAAAAAAAAAAAAAAAAAAAAAAAAAAAAAAAAAAAAAAAAAAAAAAAAAAAAAAAAAAAAAAAAAAAAAAAAAAAAAAAAAAAAAAAAAAAAAAAAAAAAAAAAAAAAAAAAAAAAAAAAAAAAAAAAAAAAAAAAAAAAAAAAAAAAAAAAAAAAAAAAAAAAAAAAAAAAAAAAAAAAAAAAAAAAAAAAAAAAAAAAAAAAAAAAAAAAAAAAAAAAAAAAAAAAAAAAAAAAAAAAAAAAAAAAAAAAAAAAAAAAAAAAAAAAAAAAAAAAAAAAAAAAAAAAAAAAAAAAAAAAAAAAAAAAAAAAAAAAAAAAAAAAAAAAAAAAAAAAAAAAAAAAAAAAAAAAAAAAAAAAAAAAAAAAAAAAAAAAAAAAAAAAAAAAAAAAAAAAAAAAAAAAAAAAAAAAAAAAAAAAAAAAAAAAAAAAAAAAAAAAAAAAAAAAAAAAAAAAAAAAAAAAAAAAAAAAAAAAAAAAAAAAAAAAAAAAAAAAAAAAAAAAAAAAAAAAAAAAAAAAAAAAAAAAAAAAAAAAAAAAAAAAAAAAAAAAAAAAAAAAAAAAAAAAAAAAAAAAAAAAAAAAAAAAAAAAAAAAAAAAAAAAAAAAAAAAAAAAAAAAAAAAAAAAAAAAAAAAAAAAAAAAAAAAAAAAAAAAAAAAAAAAAAAAAAAAAAAAAAAAAAAAAAAAAAAAAAAAAAAAAAAAAAAAAAAAAAAAAAAAAAAAAAAAAAAAAAAAAAAAAAAAAAAAAAAAAAAAAAAAAAAAAAAAAAAAAAAAAAAAAAAAAAAAAAAAAAAAAAAAAAAAAAAAAAAAAAAAAAAAAAAAAAAAAAAAAAAAAAAAAAAAAAAAAAAAAAAAAAAAAAAAAAAAAAAAAAAAAAAAAAAAAAAAAAAAAAAAAAAAAAAAAAAAAAAAAAAAAAAAAAAAAAAAAAAAAAAAAAAAAAAAAAAAAAAAAAAAAAAAAAAAAAAAAAAAAAAAAAAAAAAAAAAAAAAAAAAAAAAAAAAAAAAAAAAAAAAAAAAAAAAAAAAAAAAAAAAAAAAAAAAAAAAAAAAAAAAAAAAAAAAAAAAAAAAAAAAAAAAAAAAAAAAAAAAAAAAAAAAAAAAAAAAAAAAAAAAAAAAAAAAAAAAAAAAAAAAAAAAAAAAAAAAAAAAAAAAAAAAAAAAAAAAAAAAAAAAAAAAAAAAAAAAAAAAAAAAAAAAAAAAAAAAAAAAAAAAAAAAAAAAAAAAAAAAAAAAAAAAAAAAAAAAAAAAAAAAAAAAAAAAAAAAAAAAAAAAAAAAAAAAAAAAAAAAAAAAAAAAAAAAAAAAAAAAAAAAAAAAAAAAAAAAAAAAAAAAAAAAAAAAAAAAAAAAAAAAAAAAAAAAAAAAAAAAAAAAAAAAAAAAAAAAAAAAAAAAAAAAAAAAAAAAAAAAAAAAAAAAAAAAAAAAAAAAAAAAAAAAAAAAAAAAAAAAAAAAAAAAAAAAAAAAAAAAAAAAAAAAAAAAAAAAAAAAAAAAAAAAAAAAAAAAAAAAAAAAAAAAAAAAAAAAAAAAAAAAAAAAAAAAAAAAAAAAAAAAAAAAAAAAAAAAAAAAAAAAAAAAAAAAAAAAAAAAAAAAAAAAAAAAAAAAAAAAAAAAAAAAAAAAAAAAAAAAAAAAAAAAAAAAAAAAAAAAAAAAAAAAAAAAAAAAAAAAAAAAAAAAAAAAAAAAAAAAAAAAAAAAAAAAAAAAAAAAAAAAAAAAAAAAAAAAAAAAAAAAAAAAAAAAAAAAAAAAAAAAAAAAAAAAAAAAAAAAAAAAAAAAAAAAAAAAAAAAAAAAAAAAAAAAAAAAAAAAAAAAAAAAAAAAAAAAAAAAAAAAAAAAAAAAAAAAAAAAAAAAAAAAAAAAAAAAAAAAAAAAAAAAAAAAAAAAAAAAAAAAAAAAAAAAAAAAAAAAAAAAAAAAAAAAAAAAAAAAAAAAAAAAAAAAAAAAAAAAAAAAAAAAAAAAAAAAAAAAAAAAAAAAAAAAAAAAAAAAAAAAAAAAAAAAAAAAAAAAAAAAAAAAAAAAAAAAAAAAAAAAAAAAAAAAAAAAAAAAAAAAAAAAAAAAAAAAAAAAAAAAAAAAAAAAAAAAAAAAAAAAAAAAAAAAAAAAAAAAAAAAAAAAAAAAAAAAAAAAAAAAAAAAAAAAAAAAAAAAAAAAAAAAAAAAAAAAAAAAAAAAAAAAAAAAAAAAAAAAAAAAAAAAAAAAAAAAAAAAAAAAAAAAAAAAAAAAAAAAAAAAAAAAAAAAAAAAAAAAAAAAAAAAAAAAAAAAAAAAAAAAAAAAAAAAAAAAAAAAAAAAAAAAAAAAAAAAAAAAAAAAAAAAAAAAAAAAAAAAAAAAAAAAAAAAAAAAAAAAAAAAAAAAAAAAAAAAAAAAAAAAAAAAAAAAAAAAAAAAAAAAAAAAAAAAAAAAAAAAAAAAAAAAAAAAAAAAAAAAAAAAAAAAAAAAAAAAAAAAAAAAAAAAAAAAAAAAAAAAAAAAAAAAAAAAAAAAAAAAAAAAAAAAAAAAAAAAAAAAAAAAAAAAAAAAAAAAAAAAAAAAAAAAAAAAAAAAAAAAAAAAAAAAAAAAAAAAAAAAAAAAAAAAAAAAAAAAAAAAAAAAAAAAAAAAAAAAAAAAAAAAAAAAAAAAAAAAAAAAAAAAAAAAAAAAAAAAAAAAAAAAAAAAAAAAAAAAAAAAAAAAAAAAAAAAAAAAAAAAAAAAAAAAAAAAAAAAAAAAAAAAAAAAAAAAAAAAAAAAAAAAAAAAAAAAAAAAAAAAAAAAAAAAAAAAAAAAAAAAAAAAAAAAAAAAAAAAAAAAAAAAAAAAAAAAAAAAAAAAAAAAAAAAAAAAAAAAAAAAAAAAAAAAAAAAAAAAAAAAAAAAAAAAAAAAAAAAAAAAAAAAAAAAAAAAAAAAAAAAAAAAAAAAAAAAAAAAAAAAAAAAAAAAAAAAAAAAAAAAAAAAAAAAAAAAAAAAAAAAAAAAAAAAAAAAAAAAAAAAAAAAAAAAAAAAAAAAAAAAAAAAAAAAAAAAAAAAAAAAAAAAAAAAAAAAAAAAAAAAAAAAAAAAAAAAAAAAAAAAAAAAAAAAAAAAAAAAAAAAAAAAAAAAAAAAAAAAAAAAAAAAAAAAAAAAAAAAAAAAAAAAAAAAAAAAAAAAAAAAAAAAAAAAAAAAAAAAAAAAAAAAAAAAAAAAAAAAAAAAAAAAAAAAAAAAAAAAAAAAAAAAAAAAAAAAAAAAAAAAAAAAAAAAAAAAAAAAAAAAAAAAAAAAAAAAAAAAAAAAAAAAAAAAAAAAAAAAAAAAAAAAAAAAAAAAAAAAAAAAAAAAAAAAAAAAAAAAAAAAAAAAAAAAAAAAAAAAAAAAAAAAAAAAAAAAAAAAAAAAAAAPZYQLYzr5MWRZM0nNWusPszLKEGiLOnMRSkBWrzLCUvj04gdcGxlDKCcBCC3zNZwFitbt5vH5T8/0htHQRGzjbsA5c=</c2pa:manifest></metadata><circle cx="257.46" cy="-185.4" r="18" style="stroke:#1f2329;fill:none;stroke-width:1.5;stroke-dasharray:-;" /><path d="M 230.4,-86.39999999999999 L 243.6,-86.4" style="stroke:#1f2329;fill:none;stroke-width:1.5;stroke-dasharray:-;stroke-linecap:round;stroke-linejoin:round;" /><path d="M 243.6,-99.6 L 243.6,-73.2" style="stroke:#1f2329;fill:none;stroke-width:1.5;stroke-dasharray:-;stroke-linecap:round;stroke-linejoin:round;" /><path d="M 243.6,-92.99999999999999 L 257.46,-104.88 L 257.46,-111.48" style="stroke:#1f2329;fill:none;stroke-width:1.5;stroke-dasharray:-;stroke-linecap:round;stroke-linejoin:round;" /><path d="M 243.6,-79.80000000000001 L 257.46,-67.92 L 257.46,-61.32" style="stroke:#1f2329;fill:none;stroke-width:1.5;stroke-dasharray:-;stroke-linecap:round;stroke-linejoin:round;" /><path d="M 243.6,-79.80000000000001 L 250.627,-73.777" style="stroke:#1f2329;fill:none;stroke-width:1.5;stroke-dasharray:-;stroke-linecap:round;stroke-linejoin:round;" /><path d="M 255.941 -69.222 L 248.284 -71.044 L 252.97 -76.51 Z" style="stroke:#1f2329;fill:#1f2329;stroke-linecap:butt;stroke-linejoin:miter;" /><path d="M 0.0,-0.0 L 0,-111.825 M 0,-118.575 L 0,-230.4" style="stroke:#1f2329;fill:none;stroke-width:1.5;stroke-dasharray:-;stroke-linecap:round;stroke-linejoin:round;" /><path d="M 13.500000000000007,-118.575 L -13.5,-118.575" style="stroke:#1f2329;fill:none;stroke-width:1.5;stroke-dasharray:-;stroke-linecap:round;stroke-linejoin:round;" /><path d="M 6.750000000000007,-111.825 L -6.75,-111.825" style="stroke:#1f2329;fill:none;stroke-width:1.5;stroke-dasharray:-;stroke-linecap:round;stroke-linejoin:round;" /><path d="M 0.0,-230.4 L 128.73,-230.4 L 257.46,-230.4" style="stroke:#1f2329;fill:none;stroke-width:1.5;stroke-dasharray:-;stroke-linecap:round;stroke-linejoin:round;" /><path d="M 257.46000000000004,-230.4 L 257.46,-203.4 L 257.46,-203.4 M 257.46,-167.4 L 257.46,-167.4 L 257.46,-140.4" style="stroke:#1f2329;fill:none;stroke-width:1.5;stroke-dasharray:-;stroke-linecap:round;stroke-linejoin:round;" /><path d="M 257.46000000000004,-140.4 L 257.46,-125.94 L 257.46,-111.48" style="stroke:#1f2329;fill:none;stroke-width:1.5;stroke-dasharray:-;stroke-linecap:round;stroke-linejoin:round;" /><path d="M 273.66,-147.53999999999996 L 273.66,-125.94 L 273.66,-113.34" style="stroke:#c62828;fill:none;stroke-width:1.5;stroke-dasharray:-;stroke-linecap:round;stroke-linejoin:round;" /><path d="M 273.66 -106.34 L 270.96 -113.34 L 276.36 -113.34 Z" style="stroke:#c62828;fill:#c62828;stroke-linecap:butt;stroke-linejoin:miter;" /><path d="M 257.46000000000004,-61.31999999999999 L 257.46,-30.66 L 257.46,-0" style="stroke:#1f2329;fill:none;stroke-width:1.5;stroke-dasharray:-;stroke-linecap:round;stroke-linejoin:round;" /><path d="M 257.46000000000004,-0.0 L 128.73,-0 L 0,-0" style="stroke:#1f2329;fill:none;stroke-width:1.5;stroke-dasharray:-;stroke-linecap:round;stroke-linejoin:round;" /><path d="M 144.0,-230.4 L 144,-194.4 L 153,-194.4 L 153,-158.4 L 135,-158.4 L 135,-194.4 L 144,-194.4 M 144,-158.4 L 144,-122.4" style="stroke:#1f2329;fill:#ffd54a;stroke-width:1.5;stroke-dasharray:-;stroke-linecap:round;stroke-linejoin:round;" /><path d="M 171.0,-169.20000000000002 L 163.867,-175.314" style="stroke:#1f2329;fill:none;stroke-width:1.5;stroke-dasharray:-;stroke-linecap:round;stroke-linejoin:round;" /><path d="M 159.919 -178.698 L 165.741 -177.501 L 161.992 -173.128 Z" style="stroke:#1f2329;fill:#1f2329;stroke-linecap:butt;stroke-linejoin:miter;" /><path d="M 171.0,-158.4 L 163.867,-164.514" style="stroke:#1f2329;fill:none;stroke-width:1.5;stroke-dasharray:-;stroke-linecap:round;stroke-linejoin:round;" /><path d="M 159.919 -167.898 L 165.741 -166.701 L 161.992 -162.328 Z" style="stroke:#1f2329;fill:#1f2329;stroke-linecap:butt;stroke-linejoin:miter;" /><path d="M 144.0,-122.39999999999999 L 144,-104.4 L 144,-86.4" style="stroke:#1f2329;fill:none;stroke-width:1.5;stroke-dasharray:-;stroke-linecap:round;stroke-linejoin:round;" /><path d="M 144.0,-86.39999999999999 L 187.2,-86.4 L 230.4,-86.4" style="stroke:#1f2329;fill:none;stroke-width:1.5;stroke-dasharray:-;stroke-linecap:round;stroke-linejoin:round;" /><path d="M 165.60000000000002,-99.0 L 198,-99" style="stroke:#c62828;fill:none;stroke-width:1.5;stroke-dasharray:-;stroke-linecap:round;stroke-linejoin:round;" /><path d="M 206.8 -99 L 198 -95.4 L 198 -102.6 Z" style="stroke:#c62828;fill:#c62828;stroke-linecap:butt;stroke-linejoin:miter;" /><g><g><g><symbol id="STIXTwoMathRegular_1196" viewBox="0 -31.524 7.896 51.216"><path d="M 7.896 -2.7 L 7.896 -2.7 L 4.752 -2.7 L 4.752 0.48 L 3.888 0.48 L 3.888 -2.7 L 0.744 -2.7 L 0.744 -3.516 L 3.888 -3.516 L 3.888 -6.696 L 4.752 -6.696 L 4.752 -3.516 L 7.896 -3.516 Z " /></symbol><use href="#STIXTwoMathRegular_1196" x="-28.006" y="-171.752" width="9.212" height="59.752" fill="#1f2329" /></g></g></g><g><g><g><symbol id="STIXTwoMathRegular_3671" viewBox="0 -31.524 7.824 51.216"><path d="M 1.104 0 L 1.104 0 L 1.104 -7.884 L 2.34 -7.884 L 3.888 -3.684 Q 4.032 -3.288 4.17 -2.874 Q 4.308 -2.46 4.464 -2.052 L 4.5 -2.052 Q 4.644 -2.46 4.782 -2.874 Q 4.92 -3.288 5.064 -3.684 L 6.588 -7.884 L 7.824 -7.884 L 7.824 0 L 6.864 0 L 6.864 -4.296 Q 6.864 -4.824 6.906 -5.472 Q 6.948 -6.12 6.996 -6.636 L 6.948 -6.636 L 6.312 -4.836 L 4.8 -0.792 L 4.116 -0.792 L 2.592 -4.836 L 1.956 -6.636 L 1.908 -6.636 Q 1.956 -6.12 1.998 -5.472 Q 2.04 -4.824 2.04 -4.296 L 2.04 0 Z " /></symbol><use href="#STIXTwoMathRegular_3671" x="253.726" y="-223.755" width="11.084" height="72.556" fill="#1f2329" /></g></g></g><g><g><g><symbol id="STIXTwoMathRegular_3308" viewBox="-0.156 -31.524 4.896 51.216"><path d="M 1.248 -1.572 L 1.248 -1.572 L 2.232 -6.3 Q 2.34 -6.768 2.334 -7.038 Q 2.328 -7.308 2.112 -7.416 Q 1.896 -7.524 1.344 -7.524 L 1.416 -7.884 L 4.74 -7.884 L 4.668 -7.524 Q 4.14 -7.524 3.876 -7.416 Q 3.612 -7.308 3.504 -7.038 Q 3.396 -6.768 3.3 -6.3 L 2.316 -1.524 Q 2.28 -1.332 2.256 -1.176 Q 2.232 -1.02 2.232 -0.888 Q 2.232 -0.552 2.43 -0.456 Q 2.628 -0.36 3.192 -0.36 L 3.12 0 L -0.156 0 L -0.084 -0.36 Q 0.408 -0.36 0.654 -0.444 Q 0.9 -0.528 1.02 -0.786 Q 1.14 -1.044 1.248 -1.572 Z " /></symbol><use href="#STIXTwoMathRegular_3308" x="288.06" y="-158.455" width="6.12" height="64.02" fill="#c62828" /><symbol id="STIXTwoMathRegular_4397" viewBox="0 -31.524 9.216 51.216"><path d="M 7.848 -1.944 L 7.848 -1.944 L 8.136 -1.668 Q 7.716 -1.176 7.164 -0.762 Q 6.612 -0.348 5.904 -0.102 Q 5.196 0.144 4.284 0.144 Q 2.556 0.144 1.698 -0.744 Q 0.84 -1.632 0.84 -3.12 Q 0.84 -4.404 1.26 -5.424 Q 1.68 -6.444 2.418 -7.152 Q 3.156 -7.86 4.128 -8.232 Q 5.1 -8.604 6.204 -8.604 Q 6.888 -8.604 7.272 -8.49 Q 7.656 -8.376 7.866 -8.262 Q 8.076 -8.148 8.232 -8.148 Q 8.352 -8.148 8.472 -8.262 Q 8.592 -8.376 8.784 -8.592 L 9.216 -8.592 L 8.628 -5.592 L 8.112 -5.592 Q 8.136 -6.852 7.608 -7.416 Q 7.08 -7.98 6.012 -7.98 Q 5.172 -7.98 4.488 -7.632 Q 3.804 -7.284 3.306 -6.66 Q 2.808 -6.036 2.538 -5.22 Q 2.268 -4.404 2.268 -3.468 Q 2.268 -2.052 2.988 -1.446 Q 3.708 -0.84 4.932 -0.84 Q 5.808 -0.84 6.498 -1.116 Q 7.188 -1.392 7.848 -1.944 Z " /></symbol><use href="#STIXTwoMathRegular_4397" x="294.18" y="-143.484" width="8.064" height="44.814" fill="#c62828" /></g></g></g><g><g><g><symbol id="STIXTwoMathRegular_3308" viewBox="-0.156 -31.524 4.896 51.216"><path d="M 1.248 -1.572 L 1.248 -1.572 L 2.232 -6.3 Q 2.34 -6.768 2.334 -7.038 Q 2.328 -7.308 2.112 -7.416 Q 1.896 -7.524 1.344 -7.524 L 1.416 -7.884 L 4.74 -7.884 L 4.668 -7.524 Q 4.14 -7.524 3.876 -7.416 Q 3.612 -7.308 3.504 -7.038 Q 3.396 -6.768 3.3 -6.3 L 2.316 -1.524 Q 2.28 -1.332 2.256 -1.176 Q 2.232 -1.02 2.232 -0.888 Q 2.232 -0.552 2.43 -0.456 Q 2.628 -0.36 3.192 -0.36 L 3.12 0 L -0.156 0 L -0.084 -0.36 Q 0.408 -0.36 0.654 -0.444 Q 0.9 -0.528 1.02 -0.786 Q 1.14 -1.044 1.248 -1.572 Z " /></symbol><use href="#STIXTwoMathRegular_3308" x="180.299" y="-152.355" width="6.12" height="64.02" fill="#c62828" /><symbol id="STIXTwoMathRegular_4396" viewBox="0 -31.524 8.172 51.216"><path d="M 5.952 -4.476 L 5.952 -4.476 L 5.952 -4.392 Q 6.444 -4.332 6.864 -4.122 Q 7.284 -3.912 7.548 -3.54 Q 7.812 -3.168 7.812 -2.616 Q 7.812 -1.788 7.344 -1.206 Q 6.876 -0.624 6.06 -0.312 Q 5.244 0 4.212 0 L 0.084 0 L 0.168 -0.468 Q 0.696 -0.468 0.966 -0.558 Q 1.236 -0.648 1.374 -0.918 Q 1.512 -1.188 1.62 -1.728 L 2.628 -6.78 Q 2.736 -7.308 2.7 -7.554 Q 2.664 -7.8 2.418 -7.878 Q 2.172 -7.956 1.656 -7.956 L 1.74 -8.436 L 5.22 -8.436 Q 6.828 -8.436 7.5 -7.974 Q 8.172 -7.512 8.172 -6.708 Q 8.172 -6.036 7.884 -5.592 Q 7.596 -5.148 7.092 -4.884 Q 6.588 -4.62 5.952 -4.476 Z M 3.324 -4.08 L 3.324 -4.08 L 2.64 -0.564 Q 2.892 -0.552 3.132 -0.552 Q 3.372 -0.552 3.636 -0.552 Q 4.068 -0.552 4.542 -0.612 Q 5.016 -0.672 5.436 -0.864 Q 5.856 -1.056 6.114 -1.458 Q 6.372 -1.86 6.372 -2.556 Q 6.372 -3.132 6.09 -3.462 Q 5.808 -3.792 5.34 -3.936 Q 4.872 -4.08 4.308 -4.08 Z M 3.444 -4.668 L 3.444 -4.668 L 4.416 -4.668 Q 5.364 -4.668 5.88 -4.914 Q 6.396 -5.16 6.606 -5.598 Q 6.816 -6.036 6.816 -6.624 Q 6.816 -7.224 6.348 -7.536 Q 5.88 -7.848 4.884 -7.848 Q 4.692 -7.848 4.494 -7.848 Q 4.296 -7.848 4.092 -7.836 Z " /></symbol><use href="#STIXTwoMathRegular_4396" x="186.419" y="-137.383" width="7.151" height="44.814" fill="#c62828" /></g></g></g><circle cx="144" cy="-230.4" r="2.7" style="stroke:#1f2329;fill:#1f2329;stroke-width:1.5;stroke-dasharray:-;" /></svg>